<svg width="34" height="39" viewBox="0 0 34 39" fill="none" xmlns="http://www.w3.org/2000/svg">
<path fill-rule="evenodd" clip-rule="evenodd" d="M0.0496471 9L0 30.7606L17.1172 39L34 30.8205V9L17.1669 17.4132L0.0496471 9ZM16.8828 24.0431L19.2276 22.8746V18.668L32.1241 11.9603V29.1845L19.2276 35.4945V31.989L17.1172 33.1575L14.7724 31.989V35.4945L1.87586 29.4182V12.358L14.7724 18.668V22.8746L16.8828 24.0431Z" fill="white"/>
<path d="M32 7.5L17.0466 15L2 7.5L16.8137 1L32 7.5Z" fill="white" stroke="white"/>
<path d="M16.8947 25.8571L15 25V30.1429L17.1053 31L19 30.1429V25L16.8947 25.8571Z" fill="white"/>
<path d="M27.9345 23.9L20.6697 26.7034L20.6625 25.0949L26.5477 22.7725L20.6418 20.4961L20.6345 18.8805L27.9243 21.6184L30.872 22.753L27.9345 23.9Z" fill="#FFE600"/>
<path d="M5.76693 28.1187L13.0337 30.9171L13.0398 29.3086L7.15303 26.9903L13.0574 24.7098L13.0635 23.0942L5.77564 25.837L2.82871 26.9737L5.76693 28.1187Z" fill="#FFE600"/>
</svg>
